<svg xmlns="http://www.w3.org/2000/svg" viewBox="0 0 64 64" width="64" height="64">
  <defs>
    <linearGradient id="bg" x1="0" y1="0" x2="1" y2="1">
      <stop offset="0" stop-color="#0F4C81"/>
      <stop offset="1" stop-color="#38BDF8"/>
    </linearGradient>
  </defs>
  <rect width="64" height="64" rx="16" fill="url(#bg)"/>
  <path d="M16 22c0-3.3 2.7-6 6-6h14a8 8 0 0 1 0 16H22a6 6 0 0 0-6 6V22Z" fill="#fff" opacity="0.55"/>
  <path d="M16 32a6 6 0 0 1 6-6h17a8 8 0 0 1 0 16H22a6 6 0 0 1-6-6v-4Z" fill="#fff"/>
</svg>
