<svg xmlns="http://www.w3.org/2000/svg" viewBox="0 0 512 512" width="512" height="512">
  <defs>
    <linearGradient id="bg" x1="0" y1="0" x2="1" y2="1">
      <stop offset="0" stop-color="#0F4C81"/>
      <stop offset="1" stop-color="#38BDF8"/>
    </linearGradient>
  </defs>
  <rect width="512" height="512" rx="112" fill="url(#bg)"/>
  <path d="M128 176c0-26.5 21.5-48 48-48h112a64 64 0 0 1 0 128H176a48 48 0 0 0-48 48V176Z" fill="#fff" opacity="0.55"/>
  <path d="M128 256a48 48 0 0 1 48-48h136a64 64 0 0 1 0 128H176a48 48 0 0 1-48-48v-32Z" fill="#fff"/>
</svg>
